<svg width="21" height="21" viewBox="0 0 21 21" fill="none" xmlns="http://www.w3.org/2000/svg">
<path d="M10.5 7.98421L7.58333 5.06755L10.5 2.15088L13.4167 5.06755L10.5 7.98421ZM1.33333 17.1509V13.8175C1.33333 13.3453 1.49666 12.9495 1.82333 12.63C2.14999 12.3106 2.54222 12.1509 2.99999 12.1509H5.72916C6.00694 12.1509 6.27083 12.2203 6.52083 12.3592C6.77083 12.4981 6.97222 12.6856 7.125 12.9217C7.52777 13.4634 8.02444 13.887 8.615 14.1925C9.20555 14.4981 9.83388 14.6509 10.5 14.6509C11.1806 14.6509 11.8161 14.4981 12.4067 14.1925C12.9972 13.887 13.4867 13.4634 13.875 12.9217C14.0556 12.6856 14.2675 12.4981 14.5108 12.3592C14.7542 12.2203 15.0075 12.1509 15.2708 12.1509H18C18.4722 12.1509 18.8681 12.3106 19.1875 12.63C19.5069 12.9495 19.6667 13.3453 19.6667 13.8175V17.1509H13.8333V15.255C13.3472 15.6023 12.8228 15.8662 12.26 16.0467C11.6972 16.2273 11.1106 16.3175 10.5 16.3175C9.90277 16.3175 9.31944 16.2239 8.74999 16.0367C8.18055 15.8495 7.65277 15.582 7.16666 15.2342V17.1509H1.33333ZM3.83333 11.3175C3.13888 11.3175 2.54861 11.0745 2.06249 10.5884C1.57638 10.1023 1.33333 9.51199 1.33333 8.81755C1.33333 8.10921 1.57638 7.5156 2.06249 7.03671C2.54861 6.55782 3.13888 6.3181 3.83333 6.31755C4.54166 6.31755 5.13555 6.55727 5.615 7.03671C6.09444 7.51616 6.33388 8.10977 6.33333 8.81755C6.33333 9.51199 6.09388 10.1023 5.615 10.5884C5.13611 11.0745 4.54222 11.3175 3.83333 11.3175ZM17.1667 11.3175C16.4722 11.3175 15.8819 11.0745 15.3958 10.5884C14.9097 10.1023 14.6667 9.51199 14.6667 8.81755C14.6667 8.10921 14.9097 7.5156 15.3958 7.03671C15.8819 6.55782 16.4722 6.3181 17.1667 6.31755C17.875 6.31755 18.4689 6.55727 18.9483 7.03671C19.4278 7.51616 19.6672 8.10977 19.6667 8.81755C19.6667 9.51199 19.4272 10.1023 18.9483 10.5884C18.4694 11.0745 17.8756 11.3175 17.1667 11.3175Z" fill="white"/>
</svg>
